<svg id="圖層_1" data-name="圖層 1" xmlns="http://www.w3.org/2000/svg" xmlns:xlink="http://www.w3.org/1999/xlink" viewBox="0 0 436.59 265.08"><defs><style>.cls-1,.cls-7,.cls-9{fill:none;}.cls-2{fill:#dd5756;}.cls-2,.cls-5,.cls-6,.cls-7,.cls-8,.cls-9{stroke:#231815;stroke-miterlimit:10;}.cls-2,.cls-5,.cls-6,.cls-7,.cls-8{stroke-width:3px;}.cls-3{clip-path:url(#clip-path);}.cls-4{fill:#8babd6;}.cls-5{fill:#96c894;}.cls-6{fill:#f5ef71;}.cls-8{fill:#231815;}.cls-9{stroke-width:15px;}</style><clipPath id="clip-path"><rect class="cls-1" x="61.83" y="1.04" width="295.99" height="262.21" rx="19.67" ry="19.67"/></clipPath></defs><title>遊程氏2</title><path class="cls-2" d="M59.64,128.31C52.8,126.6,45.31,133,36.26,130c-10.64-3.62-9.53-19.38-17.74-20.78C11.05,107.93.15,119.25,1.64,127.37c1.68,9.2,18.36,9.31,19.47,17.74,1.16,8.79-16.33,13.15-16,22.94.33,10.38,20.5,20.84,27.26,16,6.5-4.64-1.64-21.79,5.2-26,5.37-3.28,15.12,3.73,22.08,2.38C79.16,156.7,80.62,133.56,59.64,128.31Z"/><path class="cls-2" d="M351.17,148.28c9.22,6.28,37.28,40.58,53.82,2.42,5.61-12.93,11.75,6.51,18.54,7.62,12.43,2,23.81-42.45-16.68-44.25-30.19-1.34-15.35,22.53-22.25,26.37-3.23,1.8-11.12,5.39-5.82-25.25,1.54-8.91-24.5,2.9-26.77,5.79Z"/><g class="cls-3"><rect class="cls-4" x="66.64" y="1.5" width="309.71" height="261.75"/><path class="cls-5" d="M19.54,143.35l63,0,129.45,0c4.19,1.67-6.07-54.62-3.11-54.86s29.63,20.83,27.42-18.81C234.5,38,212.42,62.15,207,60.27s-.06-58.77-.06-58.77H30.79S26,21.72,25,21.72,6.67,85.5,6.67,85.5Z"/><path class="cls-6" d="M155.13,263.25s-.58-47.36-1.47-46c-1.38,2.17-33.67,20.84-33.17-12.16.6-39.88,30-11.75,33.5-11.75l-.31-50-96.89-.59c-6.47,30.13-18.43,93.4-.5,116C61.55,265.39,105.79,263.25,155.13,263.25Z"/></g><rect class="cls-7" x="61.83" y="1.5" width="295.99" height="261.75" rx="16.1" ry="16.1"/><ellipse class="cls-8" cx="117.4" cy="136.68" rx="20.93" ry="28.48"/><ellipse class="cls-8" cx="303.76" cy="136.68" rx="20.93" ry="28.48"/><path class="cls-9" d="M168,178.81c28.3,35.41,58.21,35.78,85.95-3.24"/></svg>